<?xml version="1.0" standalone="no"?>
<!DOCTYPE svg PUBLIC "-//W3C//DTD SVG 20010904//EN"
 "http://www.w3.org/TR/2001/REC-SVG-20010904/DTD/svg10.dtd">
<svg version="1.0" xmlns="http://www.w3.org/2000/svg"
 width="338.000000pt" height="254.000000pt" viewBox="0 0 338.000000 254.000000"
 preserveAspectRatio="xMidYMid meet">

<g transform="translate(0.000000,254.000000) scale(0.100000,-0.100000)"
fill="#000000" stroke="none">
<path d="M199 2443 c-37 -97 -88 -347 -109 -528 -13 -115 -13 -394 0 -510 39
-350 152 -686 332 -985 67 -111 188 -279 232 -319 l26 -24 0 25 c0 46 47 213
85 302 21 48 66 131 101 184 35 53 64 98 64 100 0 3 -23 41 -51 85 -240 374
-315 827 -213 1286 27 118 82 288 115 353 10 20 19 42 19 48 0 7 -98 10 -295
10 l-295 0 -11 -27z"/>
<path d="M2630 2406 c16 -36 44 -114 64 -173 167 -518 106 -1037 -172 -1469
l-50 -77 44 -61 c52 -70 132 -224 163 -311 12 -33 30 -100 39 -150 l18 -90 64
79 c103 124 195 269 275 431 89 179 135 302 180 479 56 221 69 332 69 596 0
273 -13 383 -78 640 l-41 165 -302 3 -302 2 29 -64z"/>
<path d="M1575 1629 c-205 -15 -443 -88 -610 -185 -90 -53 -194 -130 -202
-149 -7 -21 32 -152 75 -252 43 -98 148 -283 161 -283 4 0 16 9 27 21 30 33
144 114 214 152 88 48 181 82 281 102 115 24 332 16 439 -15 144 -42 297 -124
399 -216 l50 -45 42 62 c56 82 113 208 161 354 l39 119 -33 29 c-65 56 -213
147 -302 186 -225 98 -483 140 -741 120z"/>
</g>
</svg>
